<?xml version="1.0" encoding="iso-8859-1"?>
<!-- Generator: Adobe Illustrator 19.0.0, SVG Export Plug-In . SVG Version: 6.00 Build 0)  -->
<svg version="1.1" id="Capa_1" xmlns="http://www.w3.org/2000/svg" xmlns:xlink="http://www.w3.org/1999/xlink" x="0px" y="0px"
	 viewBox="0 0 512.007 512.007" style="enable-background:new 0 0 512.007 512.007;" xml:space="preserve">
<circle style="fill:#F7F7F7;" cx="256.003" cy="256.003" r="256.003"/>
<path style="fill:#E2E1E4;" d="M347.881,145.195v36.709l-93.252-75.687C130.067,209.049,94.455,238.447,94.455,238.447
	l31.495,31.495v135.84l104.996,104.996c8.245,0.801,16.6,1.222,25.054,1.222c135.571,0,246.51-105.388,255.406-238.706
	L383.308,145.195l0,0H347.881z"/>
<path style="fill:#FF8B00;" d="M383.308,210.658v-65.463h-35.427v36.709l-93.252-75.687
	C130.067,209.048,94.455,238.447,94.455,238.447h31.495v167.335h257.356V238.447h34.237L383.308,210.658z"/>
<polygon style="fill:#FFB614;" points="360.269,379.751 148.989,379.751 148.989,220.688 254.629,136.638 360.269,220.688 "/>
<polygon style="fill:#FFC234;" points="336.91,357.261 172.348,357.261 172.348,229.952 254.629,167.904 336.91,229.952 "/>
<polygon style="fill:#F7E05D;" points="311.128,333.146 198.129,333.146 198.129,241.208 254.629,198.601 311.128,241.208 "/>
<polygon style="fill:#F6E781;" points="288.089,309.209 221.168,309.209 221.168,252.16 254.629,226.928 288.089,252.16 "/>
<g>
</g>
<g>
</g>
<g>
</g>
<g>
</g>
<g>
</g>
<g>
</g>
<g>
</g>
<g>
</g>
<g>
</g>
<g>
</g>
<g>
</g>
<g>
</g>
<g>
</g>
<g>
</g>
<g>
</g>
</svg>
