<svg id="Capa_1" enable-background="new 0 0 512 512" height="512" viewBox="0 0 512 512" width="512" xmlns="http://www.w3.org/2000/svg" xmlns:xlink="http://www.w3.org/1999/xlink"><linearGradient id="SVGID_1_" gradientUnits="userSpaceOnUse" x1="256" x2="256" y1="512" y2="0"><stop offset="0" stop-color="#ffbef9"/><stop offset="1" stop-color="#fff1ff"/></linearGradient><linearGradient id="SVGID_2_" gradientUnits="userSpaceOnUse" x1="126" x2="386" y1="386" y2="126"><stop offset="0" stop-color="#ff81ff"/><stop offset="1" stop-color="#a93aff"/></linearGradient><g><circle cx="256" cy="256" fill="url(#SVGID_1_)" r="256"/></g><g><g><path d="m386 126c-13.498-13.498-31.263-20.961-50.399-21s-36.871 7.354-50.315 20.797l-60.899 60.898s.126.126 0 .252c12.457-1.472 27.56-.583 28.83.687 6.337.917 13.437 3.217 16.124 4.564l41.173-41.173c13.57-13.317 36.859-13.396 50.357.101 13.875 13.875 13.795 36.41.101 50.356l-60.899 60.898c-11.431 11.431-28.808 12.376-38.382 7.351-2.727-.008-10.007-5.484-11.975-7.452-6.054-5.552-14.994-6.703-21.784-2.687-.755.25-2.012 1.255-3.394 2.637l-10.931 10.931c3.158 5.168 6.692 9.958 11.107 14.122 4.289 4.289 8.954 7.949 14.122 11.106 17.132 10.301 38.555 12.299 54.526 7.538 12.078-3.249 23.144-9.521 31.939-18.316l60.899-60.898c13.443-13.444 20.836-31.179 20.797-50.315-.036-19.134-7.499-36.899-20.997-50.397zm-143.091 193.548-41.425 41.425c-13.569 13.316-36.859 13.396-50.357-.101-13.875-13.875-13.795-36.41-.101-50.356l60.899-60.898c13.968-13.968 36.066-13.311 50.357.101 7.01 6.706 18.414 6.815 25.178.051l10.931-10.931c-3.032-5.294-6.818-10.084-11.107-14.122-14.111-14.111-32.337-20.46-43.096-20.481-12.299-3.372-39.828 2.49-57.492 20.154l-60.899 60.898c-13.443 13.443-20.835 31.178-20.797 50.314.04 19.134 7.502 36.9 21 50.398s31.264 20.96 50.399 20.999c19.136.039 36.871-7.354 50.314-20.796l60.899-60.898c-2.606-.011-27.466 3.298-44.703-5.757z" fill="url(#SVGID_2_)"/></g></g></svg>