<svg id="圖層_1" data-name="圖層 1" xmlns="http://www.w3.org/2000/svg" viewBox="0 0 150 50"><defs><style>.cls-1{fill:none;stroke:#33c;stroke-linecap:round;stroke-miterlimit:10;stroke-width:3px;}.cls-2{fill:#33c;}</style></defs><title>logo</title><path class="cls-1" d="M23.16,42.44a17.69,17.69,0,0,0,3,.25"/><path class="cls-1" d="M11.68,35.18a17.11,17.11,0,0,0,1.52,1.88c.42.44.86.87,1.32,1.27a14.21,14.21,0,0,0,1.56,1.22,16.48,16.48,0,0,0,1.6,1"/><path class="cls-1" d="M9.7,31.48h0"/><path class="cls-1" d="M26.12,42.69A17.64,17.64,0,1,0,8.73,22.14a19.68,19.68,0,0,0-.19,4.91"/><path class="cls-2" d="M17.89,21.4a1,1,0,0,1-1.38-.3,1.59,1.59,0,0,1-.12-.27A1.27,1.27,0,0,1,17,19.24l2.09-1.1a3,3,0,0,1,2.26-.27,1.65,1.65,0,0,1,1.09,1.75l-.1,11a1.43,1.43,0,0,1-1.2,1.63,1.7,1.7,0,0,1-.39,0A1.45,1.45,0,0,1,19.16,31a1.37,1.37,0,0,1,0-.35l.09-9.9Z"/><path class="cls-2" d="M25.36,31.51a1.32,1.32,0,0,1-.52-1.67,1.13,1.13,0,0,1,1.43-.51,5.59,5.59,0,0,0,2.07.59c1.48,0,2.62-.59,2.62-1.92,0-1.69-.89-2.21-3.19-2.26a1,1,0,0,1-1.05-.95v-.12a1,1,0,0,1,.94-1.06h.13c2,0,3-.69,3-1.94S30,20,28.74,20a3,3,0,0,0-1.75.68,1.2,1.2,0,0,1-1.69-.16.71.71,0,0,1-.1-.14,1.24,1.24,0,0,1,.49-1.68h0a6.82,6.82,0,0,1,3.47-.91c2.55,0,4.72,1.16,4.72,3.63a3.2,3.2,0,0,1-2.74,3.07c2.11.36,3.27,1.62,3.27,3.5,0,2.66-2.17,4.25-5.66,4.27A7.4,7.4,0,0,1,25.36,31.51Z"/><path class="cls-2" d="M58.06,31.39V25.87c-.85-1.52-3.49-5.61-4.48-7.34a1.57,1.57,0,0,1,.27-2.2,1.6,1.6,0,0,1,.4-.23,1.7,1.7,0,0,1,2.33.55c.05.09.09.18.13.27l1.88,3.27c.51.89,1.2,2,1.56,2.78h.17c.39-.76,1-1.95,1.51-2.83L63.56,17c.57-1.08,1.31-1.4,2.34-.9A1.52,1.52,0,0,1,66.82,18a1.72,1.72,0,0,1-.2.38c-1.38,2.46-3,5-4.6,7.46v5.54a2,2,0,0,1-4,0Z"/><path class="cls-2" d="M69.29,17.13a2.23,2.23,0,0,1,2.23-2.23h.09a2.14,2.14,0,0,1,2.23,2v.18a2.16,2.16,0,0,1-2.11,2.21h-.12a2.26,2.26,0,0,1-2.32-2.2Zm.36,14.35v-8.6a2,2,0,0,1,3.91,0v8.6a2,2,0,0,1-3.91,0Z"/><path class="cls-2" d="M78.6,29.18a5.5,5.5,0,0,0,3.57,1.45c1.4,0,2.25-.6,2.27-1.7,0-.9-.3-1.82-3-3.2-3.45-1.82-4.93-3.22-4.93-5.59,0-2.62,2.37-4.32,6.07-4.32a7.83,7.83,0,0,1,4.76,1.52,1.44,1.44,0,1,1-1.7,2.33l-.07-.06a4.69,4.69,0,0,0-3-1.05c-1.26,0-2,.52-2,1.31s.32,1.65,3,3c3.48,1.82,4.93,3.27,4.93,5.57,0,3.08-2.33,4.92-6.17,4.92a7.82,7.82,0,0,1-5.47-1.82,1.6,1.6,0,0,1-.21-2.14,1.33,1.33,0,0,1,1.84-.31Z"/><path class="cls-2" d="M102.77,25.32v6.25c0,1.22-.64,1.82-1.91,1.82S99,32.79,99,31.57V25.48c0-1.29-.53-2-1.56-2a2.39,2.39,0,0,0-2.21,1.84v6.23c0,1.22-.69,1.82-2,1.82s-2-.6-2-1.82V17c0-1.24.67-1.86,2-1.86s2,.62,2,1.86v5.4a3.82,3.82,0,0,1,3.38-1.66C101.14,20.74,102.77,22.53,102.77,25.32Z"/><path class="cls-2" d="M116.36,25.36v6.12c0,1.24-.48,1.91-1.67,1.91s-1.77-.67-1.77-1.91v-.07a4.32,4.32,0,0,1-4,2c-2.43,0-3.93-1.43-3.93-3.71,0-2.73,2.55-4.43,6.42-4.43a8.59,8.59,0,0,1,1.24.07v-.21a1.74,1.74,0,0,0-1.58-1.89h-.28a3.79,3.79,0,0,0-2.92,1.34,1.36,1.36,0,0,1-1.9.22l0,0a1.29,1.29,0,0,1-.22-1.81l.09-.1a6.66,6.66,0,0,1,5.06-2.09c2.13,0,3.49.48,4.48,1.52A4.38,4.38,0,0,1,116.36,25.36Zm-3.68,2.3a7.37,7.37,0,0,0-1.24-.07c-2.2.12-3,1-2.92,1.87s.53,1.24,1.47,1.24a3.11,3.11,0,0,0,2.69-1.87Z"/><path class="cls-2" d="M131.06,25.32v6.16a2,2,0,0,1-3.91,0V25.62c0-1.45-.6-2.33-1.65-2.33a2.56,2.56,0,0,0-2.23,2.21v6a2,2,0,0,1-3.91,0v-9a1.81,1.81,0,0,1,3.61,0v.37a4,4,0,0,1,3.65-2.14C129.36,20.74,131.06,22.49,131.06,25.32Z"/></svg>